<svg width="17" height="17" viewBox="0 0 17 17" fill="none" xmlns="http://www.w3.org/2000/svg">
<path d="M3.19751 3.19751L6.37751 6.37751" stroke="#18181B" stroke-linecap="round" stroke-linejoin="round"/>
<path d="M10.6225 6.37751L13.8025 3.19751" stroke="#18181B" stroke-linecap="round" stroke-linejoin="round"/>
<path d="M10.6225 6.37751L13.27 3.73001" stroke="#18181B" stroke-linecap="round" stroke-linejoin="round"/>
<path d="M8.5 16C12.6421 16 16 12.6421 16 8.5C16 4.35786 12.6421 1 8.5 1C4.35786 1 1 4.35786 1 8.5C1 12.6421 4.35786 16 8.5 16Z" stroke="#18181B" stroke-linecap="round" stroke-linejoin="round"/>
<path d="M8.5 11.5C10.1569 11.5 11.5 10.1569 11.5 8.5C11.5 6.84315 10.1569 5.5 8.5 5.5C6.84315 5.5 5.5 6.84315 5.5 8.5C5.5 10.1569 6.84315 11.5 8.5 11.5Z" stroke="#18181B" stroke-linecap="round" stroke-linejoin="round"/>
<path d="M10.6225 10.6225L13.8025 13.8025" stroke="#18181B" stroke-linecap="round" stroke-linejoin="round"/>
<path d="M3.19751 13.8025L6.37751 10.6225" stroke="#18181B" stroke-linecap="round" stroke-linejoin="round"/>
</svg>
