<svg width="112" height="112" viewBox="0 0 112 112" fill="none" xmlns="http://www.w3.org/2000/svg">
<path d="M0 18C0 8.05887 8.05888 0 18 0H94C103.941 0 112 8.05888 112 18V94C112 103.941 103.941 112 94 112H18C8.05887 112 0 103.941 0 94V18Z" fill="#FDCB28"/>
<path fill-rule="evenodd" clip-rule="evenodd" d="M74 13H43.9721L15 72H45.0279L74 13ZM92.8187 45.0439C94.1841 45.0664 95.568 45.0893 96.9723 45.0896V72.0304H84.5297C84.4607 72.4954 84.3917 72.9217 84.3266 73.3242C84.2173 73.9998 84.1188 74.6084 84.0494 75.2208C82.4883 88.7583 71.6807 98.8275 58.5083 98.9904C58.2405 98.9952 57.9749 98.9952 57.7093 98.9952C57.4437 98.9952 57.1782 98.9952 56.9103 99H54.1299C53.4094 99 52.6889 98.9979 51.9684 98.9957C50.5274 98.9915 49.0863 98.9872 47.6453 99H47.2389H45.0035V83.1727H45L45 72.0304H57.8617C57.8617 72.0304 58 67.5 61.0578 59.7193C62.8499 56.0499 65.4455 52.9074 68.6509 50.4931C72.4197 47.6572 76.2624 46.2585 80.2159 45.5878C84.2642 44.9026 88.4461 44.9717 92.8187 45.0439Z" fill="black"/>
</svg>
