<svg width="36" height="36" viewBox="0 0 36 36" fill="none" xmlns="http://www.w3.org/2000/svg">
  <path d="M30.2942 15.465L36 9.73379L32.727 6.44876L27.0264 12.1749V23.82L32.727 29.5461L36 26.2585L30.2942 20.5273C29.6263 19.8558 29.2512 18.9454 29.2512 17.9962C29.2512 17.0469 29.6263 16.1366 30.2942 15.465Z" fill="#070606"/>
  <path d="M3.59707 6.44876L0.324118 9.73379L5.86971 15.3029C6.20118 15.635 6.46417 16.0295 6.64361 16.4638C6.82305 16.8981 6.91542 17.3638 6.91542 17.834C6.91542 18.3043 6.82305 18.7699 6.64361 19.2042C6.46417 19.6386 6.20118 20.0331 5.86971 20.3651L0 26.2585L3.27296 29.5461L8.97616 23.8174V11.8519L3.59707 6.44876Z" fill="#070606"/>
  <path d="M26.232 0L20.5211 5.73635C20.1905 6.0693 19.7978 6.33347 19.3654 6.51371C18.933 6.69395 18.4694 6.78673 18.0013 6.78673C17.5331 6.78673 17.0696 6.69395 16.6372 6.51371C16.2048 6.33347 15.812 6.0693 15.4814 5.73635L9.77057 0L6.50015 3.28758L12.1207 8.93712H23.8818L29.5024 3.29141L26.232 0Z" fill="#070606"/>
  <path d="M23.8792 27.0667H12.1208L6.5027 32.7099L9.77566 35.9975L15.4814 30.27C15.812 29.9375 16.2046 29.6736 16.6367 29.4936C17.0689 29.3136 17.5321 29.2209 18 29.2209C18.4679 29.2209 18.9311 29.3136 19.3633 29.4936C19.7954 29.6736 20.188 29.9375 20.5186 30.27L26.2243 36L29.4973 32.7124L23.8792 27.0667Z" fill="#070606"/>
  <path d="M23.1319 23.7906H12.9914V11.7766H16.4957V20.2694H23.1319V23.7906Z" fill="#070606"/>
</svg>