<svg width="185" height="36" viewBox="0 0 185 36" fill="none" xmlns="http://www.w3.org/2000/svg">
<path d="M2 5.78571C2 2.59035 4.59035 0 7.78571 0H32.2143C35.4096 0 38 2.59035 38 5.78571V30.2143C38 33.4096 35.4096 36 32.2143 36H7.78571C4.59035 36 2 33.4096 2 30.2143V5.78571Z" fill="#FDCB28"/>
<path fill-rule="evenodd" clip-rule="evenodd" d="M25.7858 4.17859H16.134L6.82153 23.1429H16.4733L25.7858 4.17859ZM31.8347 14.4784C32.2735 14.4857 32.7184 14.493 33.1698 14.4931V23.1527H29.1704C29.1482 23.3021 29.126 23.4391 29.1051 23.5685C29.07 23.7857 29.0383 23.9813 29.016 24.1781C28.5142 28.5295 25.0403 31.766 20.8064 31.8184C20.7202 31.8199 20.6349 31.8199 20.5495 31.8199C20.4641 31.8199 20.3788 31.8199 20.2927 31.8214H19.399C19.1674 31.8214 18.9358 31.8208 18.7042 31.8201C18.241 31.8187 17.7779 31.8173 17.3147 31.8214H17.184H16.4655V26.7341H16.4644L16.4644 23.1527H20.5985C20.5985 23.1527 20.643 21.6964 21.6258 19.1955C22.2018 18.0161 23.0362 17.006 24.0665 16.2299C25.2779 15.3184 26.513 14.8688 27.7838 14.6532C29.085 14.433 30.4292 14.4552 31.8347 14.4784Z" fill="black"/>
<path d="M50.0018 9.68488H53.6964V23.6893H60.5439V26.8528H50V9.68488H50.0018Z" fill="black"/>
<path d="M64.4251 14.8978C65.3857 14.3671 66.4976 14.1008 67.7626 14.1008C69.0276 14.1008 70.1729 14.3496 71.1494 14.8488C72.1258 15.348 72.8894 16.0504 73.4401 16.9578C73.9908 17.8651 74.274 18.9319 74.2899 20.158C74.2899 20.5995 74.2565 20.9918 74.1914 21.3352H65.0021V21.4333C65.0848 22.3494 65.3804 23.0675 65.8889 23.5913C66.3973 24.115 67.0958 24.376 67.9825 24.376C68.688 24.376 69.2757 24.2254 69.7437 23.9224C70.2117 23.6193 70.5195 23.1744 70.6673 22.5858H74.0911C73.9591 23.4196 73.6389 24.1711 73.1305 24.842C72.622 25.5129 71.9482 26.0401 71.1107 26.4237C70.2732 26.8073 69.3126 27 68.2288 27C66.8161 27 65.5968 26.739 64.5711 26.2153C63.5454 25.6915 62.7572 24.9436 62.2065 23.9714C61.6558 22.9992 61.3813 21.8659 61.3813 20.5749C61.3813 19.284 61.6488 18.1261 62.1819 17.154C62.715 16.1818 63.4627 15.4286 64.4233 14.8978H64.4251ZM69.8686 17.3011C69.3513 16.8842 68.6986 16.6758 67.9104 16.6758C67.1222 16.6758 66.5187 16.893 66.0015 17.3256C65.4842 17.7583 65.1763 18.3433 65.0778 19.079H70.8169C70.7025 18.3101 70.3858 17.718 69.8686 17.3011Z" fill="black"/>
<path d="M83.8981 17.3869H82.5187C81.5335 17.3869 80.8103 17.6812 80.3512 18.2698C79.892 18.8583 79.6615 19.6588 79.6615 20.6731V26.8529H76.1885V14.248H79.3413L79.6615 16.1363C80.0397 15.5144 80.5077 15.045 81.0655 14.7262C81.6232 14.4074 82.3709 14.248 83.3069 14.248H83.8981V17.3869Z" fill="black"/>
<path d="M89.1953 10.9373C89.1953 11.4926 89.0071 11.9585 88.6288 12.3351C88.2505 12.7118 87.7755 12.8992 87.2002 12.8992C86.6249 12.8992 86.1446 12.7118 85.7593 12.3351C85.374 11.9585 85.1804 11.4926 85.1804 10.9373C85.1804 10.3821 85.374 9.91962 85.7593 9.55177C86.1446 9.18392 86.6249 9 87.2002 9C87.7755 9 88.2505 9.18392 88.6288 9.55177C89.0071 9.91962 89.1953 10.3821 89.1953 10.9373ZM88.9244 14.248V26.8546H85.4514V14.248H88.9244Z" fill="black"/>
<path d="M103.803 26.8529H102.03C100.438 26.8529 99.6566 26.1662 99.69 24.7929C99.2308 25.5129 98.6643 26.0594 97.9905 26.436C97.3166 26.8126 96.5038 27 95.552 27C94.1392 27 93.0026 26.6777 92.1406 26.0313C91.2785 25.385 90.8474 24.4741 90.8474 23.297C90.8474 21.957 91.3436 20.9218 92.3376 20.1948C93.3316 19.4679 94.7726 19.1036 96.6604 19.1036H99.1728V18.4905C99.1728 17.9177 98.9599 17.464 98.5324 17.1294C98.1048 16.7949 97.5313 16.6267 96.8082 16.6267C96.1678 16.6267 95.6417 16.7651 95.2318 17.0436C94.8218 17.3221 94.5755 17.697 94.4928 18.1717H91.143C91.2574 16.8807 91.8327 15.8788 92.8672 15.1676C93.9017 14.4564 95.2722 14.1008 96.9806 14.1008C98.6889 14.1008 100.155 14.4932 101.131 15.2779C102.107 16.0627 102.597 17.1995 102.597 18.6867V23.1253C102.597 23.4354 102.662 23.6491 102.794 23.7629C102.926 23.8768 103.13 23.9346 103.409 23.9346H103.803V26.8529ZM96.634 21.4087C95.9109 21.4087 95.3497 21.5524 94.9468 21.8379C94.5439 22.1234 94.3433 22.528 94.3433 23.0518C94.3433 23.4932 94.5122 23.8453 94.8482 24.1063C95.1843 24.3673 95.64 24.4986 96.2153 24.4986C97.1178 24.4986 97.8321 24.2412 98.3582 23.7262C98.8842 23.2112 99.1552 22.521 99.171 21.654V21.4087H96.634Z" fill="black"/>
<path d="M117.498 20.0109V26.8529H114.025V20.2071C114.025 18.0333 113.172 16.9455 111.464 16.9455C110.561 16.9455 109.863 17.2486 109.37 17.8529C108.878 18.4572 108.631 19.3085 108.631 20.4033V26.8529H105.158V14.248H108.188L108.508 15.8175C108.951 15.2779 109.485 14.8575 110.109 14.5545C110.734 14.2515 111.504 14.1008 112.424 14.1008C113.902 14.1008 115.118 14.558 116.07 15.4741C117.022 16.3902 117.498 17.9019 117.498 20.0109Z" fill="black"/>
<path d="M121.934 25.1485C122.657 25.6635 123.609 25.921 124.791 25.921C125.826 25.921 126.679 25.7003 127.353 25.2589C128.027 24.8175 128.363 24.2377 128.363 23.5177C128.363 22.9449 128.203 22.5 127.882 22.1812C127.562 21.8624 127.147 21.633 126.638 21.4946C126.13 21.3562 125.447 21.2213 124.594 21.0899C123.544 20.9428 122.689 20.7746 122.032 20.5872C121.376 20.3998 120.834 20.0845 120.407 19.6431C119.979 19.2017 119.766 18.5886 119.766 17.8038C119.766 17.1172 119.967 16.5041 120.37 15.9646C120.773 15.4251 121.322 15.0047 122.02 14.7017C122.719 14.3986 123.51 14.248 124.397 14.248C125.826 14.248 126.987 14.5633 127.882 15.1921C128.778 15.821 129.283 16.7336 129.397 17.9265H128.141C128.027 17.126 127.636 16.4919 126.971 16.0259C126.306 15.56 125.472 15.327 124.471 15.327C123.47 15.327 122.599 15.5477 121.959 15.9891C121.318 16.4305 120.998 17.0033 120.998 17.7057C120.998 18.2453 121.158 18.6622 121.478 18.9564C121.798 19.2507 122.189 19.4557 122.648 19.5695C123.107 19.6834 123.772 19.799 124.643 19.9128C125.711 20.06 126.589 20.2439 127.279 20.4646C127.969 20.6853 128.532 21.0321 128.966 21.5068C129.401 21.9815 129.619 22.6261 129.619 23.4442C129.619 24.5232 129.154 25.385 128.227 26.0314C127.3 26.6777 126.153 27 124.791 27C123.215 27 121.95 26.6532 120.998 25.9578C120.046 25.2624 119.553 24.2867 119.52 23.0273H120.776C120.825 23.9259 121.211 24.6335 121.934 25.1485Z" fill="black"/>
<path d="M130.581 15.5722V14.4196H132.946V10.9373H134.202V14.4196H137.527V15.5722H134.202V23.9346C134.202 24.5722 134.334 25.0259 134.596 25.2956C134.858 25.5654 135.302 25.7003 135.926 25.7003H137.749V26.8528H135.877C134.827 26.8528 134.075 26.6234 133.623 26.1662C133.171 25.709 132.946 24.9733 132.946 23.9591V15.5704H130.581V15.5722Z" fill="black"/>
<path d="M149.795 26.8529H148.687L148.515 24.2289C148.136 25.0784 147.579 25.7528 146.84 26.252C146.101 26.7513 145.198 27 144.13 27C142.686 27 141.523 26.5305 140.645 25.5899C139.767 24.6493 139.327 23.2479 139.327 21.3842V14.4196H140.583V21.3106C140.583 22.782 140.912 23.9066 141.569 24.6826C142.225 25.4585 143.145 25.8474 144.327 25.8474C145.624 25.8474 146.651 25.3692 147.406 24.4128C148.161 23.4564 148.539 22.1602 148.539 20.5259V14.4196H149.795V26.8546V26.8529Z" fill="black"/>
<path d="M164.256 26.8528H163.172L162.975 24.0327C162.565 24.9313 161.949 25.6512 161.127 26.1907C160.306 26.7302 159.338 27 158.221 27C157.104 27 156.073 26.739 155.179 26.2152C154.283 25.6915 153.587 24.9523 153.085 23.9959C152.584 23.0395 152.334 21.9149 152.334 20.624C152.334 19.333 152.584 18.303 153.085 17.3378C153.587 16.3727 154.283 15.6212 155.179 15.0817C156.075 14.5422 157.088 14.2725 158.221 14.2725C159.354 14.2725 160.355 14.5335 161.177 15.0572C161.998 15.5809 162.605 16.2991 162.999 17.2152V9.68488H164.256V26.8528ZM162.433 23.3583C162.827 22.5648 163.024 21.6627 163.024 20.6485C163.024 19.6343 162.827 18.7269 162.433 17.9264C162.039 17.1259 161.485 16.5006 160.77 16.0504C160.056 15.6002 159.24 15.376 158.32 15.376C157.399 15.376 156.583 15.6002 155.869 16.0504C155.154 16.5006 154.6 17.1206 154.206 17.9141C153.812 18.7076 153.615 19.6097 153.615 20.624C153.615 21.6382 153.812 22.5455 154.206 23.346C154.6 24.1465 155.154 24.7684 155.869 25.2098C156.583 25.6512 157.401 25.8719 158.32 25.8719C159.238 25.8719 160.056 25.6512 160.77 25.2098C161.485 24.7684 162.039 24.1518 162.433 23.3583Z" fill="black"/>
<path d="M168.714 10.7412C168.714 11.0022 168.631 11.2159 168.468 11.3788C168.304 11.5417 168.089 11.624 167.827 11.624C167.581 11.624 167.371 11.5417 167.199 11.3788C167.027 11.2159 166.94 11.0022 166.94 10.7412C166.94 10.4802 167.027 10.2665 167.199 10.1036C167.371 9.94067 167.581 9.85834 167.827 9.85834C168.089 9.85834 168.304 9.94067 168.468 10.1036C168.631 10.2665 168.714 10.4802 168.714 10.7412ZM168.468 14.4196V26.8546H167.211V14.4196H168.468Z" fill="black"/>
<path d="M171.768 23.9346C171.26 22.9694 171.005 21.8659 171.005 20.624C171.005 19.382 171.26 18.282 171.768 17.3256C172.277 16.3692 172.984 15.6212 173.886 15.0817C174.789 14.5422 175.824 14.2725 176.99 14.2725C178.156 14.2725 179.195 14.5422 180.106 15.0817C181.017 15.6212 181.728 16.3692 182.236 17.3256C182.745 18.282 183 19.382 183 20.624C183 21.8659 182.745 22.9694 182.236 23.9346C181.728 24.8997 181.017 25.6512 180.106 26.1907C179.195 26.7302 178.156 27 176.99 27C175.824 27 174.789 26.7302 173.886 26.1907C172.984 25.6512 172.277 24.8997 171.768 23.9346ZM181.13 23.346C181.524 22.5455 181.721 21.6382 181.721 20.624C181.721 19.6098 181.524 18.7076 181.13 17.9141C180.736 17.1207 180.178 16.5006 179.455 16.0504C178.732 15.6002 177.912 15.376 176.992 15.376C176.072 15.376 175.255 15.6002 174.541 16.0504C173.827 16.5006 173.272 17.1207 172.878 17.9141C172.484 18.7076 172.287 19.6098 172.287 20.624C172.287 21.6382 172.484 22.5455 172.878 23.346C173.272 24.1465 173.827 24.7684 174.541 25.2098C175.255 25.6512 176.073 25.8719 176.992 25.8719C177.91 25.8719 178.732 25.6512 179.455 25.2098C180.178 24.7684 180.736 24.1465 181.13 23.346Z" fill="black"/>
</svg>
