<svg width="346" height="112" viewBox="0 0 346 112" fill="none" xmlns="http://www.w3.org/2000/svg">
<path d="M94.2487 48.1135L112 30.283L101.817 20.0629L84.082 37.8775V74.1066L101.817 91.9213L112 81.6932L94.2487 63.8627C92.1708 61.7735 91.0037 58.9412 91.0037 55.9881C91.0037 53.035 92.1708 50.2027 94.2487 48.1135Z" fill="#070606"/>
<path d="M11.1909 20.0629L1.00837 30.283L18.2613 47.6091C19.2926 48.6422 20.1108 49.8695 20.669 51.2208C21.2273 52.572 21.5146 54.0207 21.5146 55.4837C21.5146 56.9466 21.2273 58.3953 20.669 59.7465C20.1108 61.0978 19.2926 62.3251 18.2613 63.3582L0 81.6932L10.1825 91.9213L27.9258 74.0987V36.8726L11.1909 20.0629Z" fill="#070606"/>
<path d="M81.6106 0L63.8435 17.8464C62.815 18.8823 61.5931 19.7041 60.2479 20.2649C58.9026 20.8256 57.4605 21.1143 56.004 21.1143C54.5475 21.1143 53.1053 20.8256 51.7601 20.2649C50.4148 19.7041 49.1929 18.8823 48.1644 17.8464L30.3974 0L20.2227 10.228L37.709 27.8044H74.2989L91.7852 10.24L81.6106 0Z" fill="#070606"/>
<path d="M74.291 84.2075H37.709L20.2306 101.764L30.4131 111.992L48.1644 94.1734C49.1927 93.1387 50.4141 92.3179 51.7587 91.7579C53.1032 91.1978 54.5444 90.9096 56 90.9096C57.4555 90.9096 58.8968 91.1978 60.2413 91.7579C61.5858 92.3179 62.8072 93.1387 63.8356 94.1734L81.5868 112L91.7693 101.772L74.291 84.2075Z" fill="#070606"/>
<path d="M71.9659 74.0153H40.4178V36.6383H51.32V63.0604H71.9659V74.0153Z" fill="#070606"/>
<path d="M137.83 35.5V68.4067H154.736V76.4847H128V35.5H137.83Z" fill="#070606"/>
<path d="M190.705 35.5V43.5019H171.057V51.3132H187.789V59.3912H171.057V68.4105H190.705V76.4885H161.227V35.5H190.705Z" fill="#070606"/>
<path d="M234.938 76.4848H224.115L218.496 65.0688H209.431V76.5H199.602V35.5H219.9C223.06 35.5 225.712 36.1732 227.857 37.5195C229.943 38.7997 231.61 40.6617 232.654 42.877C233.726 45.1864 234.266 47.7075 234.234 50.2539C234.252 52.7144 233.711 55.1468 232.654 57.3679C231.658 59.509 230.102 61.3405 228.15 62.6682L234.938 76.4848ZM209.431 43.5209V56.9869H217.734C219.838 56.9869 221.525 56.334 222.794 55.0283C224.019 53.7457 224.702 52.0397 224.702 50.2653C224.702 48.491 224.019 46.7849 222.794 45.5023C221.525 44.1738 219.838 43.5095 217.734 43.5095L209.431 43.5209Z" fill="#070606"/>
<path d="M251.902 76.4847H242.072V35.5H251.902V76.4847Z" fill="#070606"/>
<path d="M268.162 76.4847H257.925L273.895 35.5H286.531L302.501 76.4847H292.222L288.769 66.8825H271.672L268.162 76.4847ZM279.629 44.4773L274.363 58.8806H286.005L280.801 44.4544L279.629 44.4773Z" fill="#070606"/>
<path d="M335.37 59.2121H335.781V35.5H345.607V76.4847H337.014L319 52.7726H318.592V76.4847H308.759V35.5H317.359L335.37 59.2121Z" fill="#070606"/>
</svg>
